{"title":"Transformers 2014 New Source HDTS XVID AC3-ACAB","uid":10574840,"size":1473216397,"categoryP":"video","categoryS":"movies","magnet":"?xt=urn:btih:5e0209a4578d7c47d55566491b0cbf94493bb506&amp;dn=Transformers+2014+New+Source+HDTS+XVID+AC3-ACAB&amp;tr=udp%3A%2F%2Ftracker.openbittorrent.com%3A80&amp;tr=udp%3A%2F%2Fopen.demonii.com%3A1337&amp;tr=udp%3A%2F%2Ftracker.coppersurfer.tk%3A6969&amp;tr=udp%3A%2F%2Fexodus.desync.com%3A6969","seeders":9,"leechers":1,"uploader":"HeroMaster","files":-1,"time":1405634822,"description":":::::::::::: ACAB PRESENTS ::::::::::::\n\n\n:::: Transformers Age of Extinction 2014 New Source HDTS XVID AC3-ACAB ::::\n\n\n::Information::\n\n\nSource: SMY R6 subbed copy thx\nIMDB: http://www.imdb.com/title/tt2109248/\nNotes: Quality of Sound is turned up and Picture is workout good for a TC Copy.\n\n\nFormat                                   : AVI\nFormat/Info                              : Audio Video Interleave\nFile size                                : 1.36 GiB\nDuration                                 : 2h 36mn\nOverall bit rate                         : 1 246 Kbps\nWriting library                          : VirtualDub build 30091/release\n\nVideo\nID                                       : 0\nFormat                                   : MPEG-4 Visual\nFormat profile                           : Advanced Simple@L5\nFormat settings, BVOP                    : 2\nFormat settings, QPel                    : No\nFormat settings, GMC                     : No warppoints\nFormat settings, Matrix                  : Default (H.263)\nMuxing mode                              : Packed bitstream\nCodec ID                                 : XVID\nCodec ID/Hint                            : XviD\nDuration                                 : 2h 36mn\nBit rate                                 : 1 045 Kbps\nWidth                                    : 640 pixels\nHeight                                   : 272 pixels\nDisplay aspect ratio                     : 2.35:1\nFrame rate                               : 23.077 fps\nColor space                              : YUV\nChroma subsampling                       : 4:2:0\nBit depth                                : 8 bits\nScan type                                : Progressive\nCompression mode                         : Lossy\nBits/(Pixel*Frame)                       : 0.260\nStream size                              : 1.14 GiB (84%)\nWriting library                          : XviD 65\n\nAudio\nID                                       : 1\nFormat                                   : AC-3\nFormat/Info                              : Audio Coding 3\nMode extension                           : CM (complete main)\nFormat settings, Endianness              : Big\nCodec ID                                 : 2000\nDuration                                 : 2h 36mn\nBit rate mode                            : Constant\nBit rate                                 : 192 Kbps\nChannel(s)                               : 2 channels\nChannel positions                        : Front: L R\nSampling rate                            : 44.1 KHz\nBit depth                                : 16 bits\nCompression mode                         : Lossy\nStream size                              : 215 MiB (15%)\n\n\n::Greetz and Respect::\n\n\nALL CREDIT Goes to ACAB for Encoding and ABG for Distribution.\n\n\n::Poster::\n\n &lt;a href=&quot;\nhttp://i.imgur.com/vV3QOMK.jpg&quot; rel=&quot;nofollow&quot; target=&quot;_NEW&quot;&gt;\nhttp://i.imgur.com/vV3QOMK.jpg&lt;/a&gt;\n\n\n::Screenshots::\n\n &lt;a href=&quot;\nhttp://i.imgur.com/EX38h3T.png&quot; rel=&quot;nofollow&quot; target=&quot;_NEW&quot;&gt;\nhttp://i.imgur.com/EX38h3T.png&lt;/a&gt;\n\n &lt;a href=&quot;\nhttp://i.imgur.com/54RC9RG.png&quot; rel=&quot;nofollow&quot; target=&quot;_NEW&quot;&gt;\nhttp://i.imgur.com/54RC9RG.png&lt;/a&gt;\n\n &lt;a href=&quot;\nhttp://i.imgur.com/CjjW7c9.png&quot; rel=&quot;nofollow&quot; target=&quot;_NEW&quot;&gt;\nhttp://i.imgur.com/CjjW7c9.png&lt;/a&gt;\n\n\nSEED AND ENJOY!","torrent":{"xt":"urn:btih:5e0209a4578d7c47d55566491b0cbf94493bb506","amp;dn":"Transformers+2014+New+Source+HDTS+XVID+AC3-ACAB","amp;tr":["udp%3A%2F%2Ftracker.openbittorrent.com%3A80","udp%3A%2F%2Fopen.demonii.com%3A1337","udp%3A%2F%2Ftracker.coppersurfer.tk%3A6969","udp%3A%2F%2Fexodus.desync.com%3A6969"],"infoHash":"5e0209a4578d7c47d55566491b0cbf94493bb506","infoHashBuffer":{"type":"Buffer","data":[94,2,9,164,87,141,124,71,213,85,102,73,27,12,191,148,73,59,181,6]},"announce":[],"urlList":[]}}